<svg xmlns="http://www.w3.org/2000/svg" xmlns:xlink="http://www.w3.org/1999/xlink" width="0" height="0" style="position:absolute">
	
		<symbol id="icon-arrow-left" viewBox="0 0 46.02 46.02">
			<path d="M31.263 46.02a5.688 5.688 0 0 0 3.929-1.569 5.705 5.705 0 0 0 .204-8.063L22.638 22.97 35.383 9.645a5.703 5.703 0 0 0-8.242-7.884L10.636 19.014a5.707 5.707 0 0 0-.013 7.872l16.504 17.361a5.699 5.699 0 0 0 4.136 1.773z"></path>
		</symbol>
	
		<symbol id="icon-arrow-right" viewBox="0 0 444.819 444.819">
			<path d="M352.025 196.712L165.884 10.848C159.029 3.615 150.469 0 140.187 0s-18.842 3.619-25.697 10.848L92.792 32.264c-7.044 7.043-10.566 15.604-10.566 25.692 0 9.897 3.521 18.56 10.566 25.981L231.545 222.41 92.786 361.168c-7.042 7.043-10.564 15.604-10.564 25.693 0 9.896 3.521 18.562 10.564 25.98l21.7 21.413c7.043 7.043 15.612 10.564 25.697 10.564 10.089 0 18.656-3.521 25.697-10.564L352.025 248.39c7.046-7.423 10.571-16.084 10.571-25.981.001-10.088-3.525-18.654-10.571-25.697z"></path>
		</symbol>
	
		<symbol id="icon-call" viewBox="0 0 384 384">
			<path d="M353.188 252.052c-23.51 0-46.594-3.677-68.469-10.906-10.719-3.656-23.896-.302-30.438 6.417l-43.177 32.594c-50.073-26.729-80.917-57.563-107.281-107.26l31.635-42.052c8.219-8.208 11.167-20.198 7.635-31.448-7.26-21.99-10.948-45.063-10.948-68.583C132.146 13.823 118.323 0 101.333 0h-70.52C13.823 0 0 13.823 0 30.813 0 225.563 158.438 384 353.188 384c16.99 0 30.813-13.823 30.813-30.813v-70.323c-.001-16.989-13.824-30.812-30.813-30.812z"></path>
		</symbol>
	
		<symbol id="icon-cart" viewBox="0 31 512 512">
			<path d="M166 300.004h271.004c6.71 0 12.598-4.438 14.414-10.883l60.004-210.004c1.289-4.527.406-9.39-2.434-13.152A15.034 15.034 0 0 0 497.004 60H131.37l-10.723-48.25A15 15 0 0 0 106 0H15C6.71 0 0 6.71 0 15c0 8.293 6.71 15 15 15h78.96l54.169 243.75C132.19 280.68 121 296.543 121 315.004c0 24.812 20.187 45 45 45h271.004c8.293 0 15-6.707 15-15 0-8.29-6.707-15-15-15H166c-8.262 0-15-6.723-15-15s6.738-15 15-15zm0 0M151 405.004c0 24.816 20.188 45 45.004 45 24.812 0 45-20.184 45-45 0-24.813-20.188-45-45-45-24.816 0-45.004 20.187-45.004 45zm211.004 0c0 24.816 20.187 45 45 45 24.816 0 45-20.184 45-45 0-24.813-20.184-45-45-45-24.813 0-45 20.187-45 45zm0 0"></path>
		</symbol>
	
		<symbol id="icon-comment" viewBox="0 0 511.626 511.626">
			<g><path d="M301.927 327.605c30.926-13.038 55.34-30.785 73.23-53.248 17.888-22.458 26.833-46.915 26.833-73.372 0-26.458-8.945-50.917-26.84-73.376-17.888-22.459-42.298-40.208-73.228-53.249-30.93-13.039-64.571-19.556-100.928-19.556-36.354 0-69.995 6.521-100.927 19.556-30.929 13.04-55.34 30.789-73.229 53.249C8.947 150.072 0 174.527 0 200.986c0 22.648 6.767 43.975 20.28 63.96 13.512 19.981 32.071 36.829 55.671 50.531-1.902 4.572-3.853 8.754-5.852 12.566a72.375 72.375 0 0 1-7.139 10.991 984.53 984.53 0 0 0-6.423 8.275c-1.523 1.998-3.997 4.812-7.425 8.422-3.427 3.617-5.617 5.996-6.567 7.135 0-.191-.381.24-1.143 1.287-.763 1.047-1.191 1.52-1.285 1.431-.096-.103-.477.373-1.143 1.42l-1 1.571-.715 1.423a6.114 6.114 0 0 0-.57 1.712c-.096.567-.144 1.19-.144 1.854s.094 1.28.288 1.854c.381 2.471 1.475 4.466 3.283 5.996 1.807 1.52 3.756 2.279 5.852 2.279h.857c9.515-1.332 17.701-2.854 24.552-4.569 29.312-7.61 55.771-19.797 79.372-36.545 17.129 3.046 33.879 4.568 50.247 4.568 36.357.013 70.002-6.502 100.931-19.542z"></path><path d="M491.354 338.166c13.518-19.889 20.272-41.247 20.272-64.09 0-23.414-7.146-45.316-21.416-65.68-14.277-20.362-33.694-37.305-58.245-50.819 4.374 14.274 6.563 28.739 6.563 43.398 0 25.503-6.368 49.676-19.129 72.519-12.752 22.836-31.025 43.01-54.816 60.524-22.08 15.988-47.205 28.261-75.377 36.829-28.164 8.562-57.573 12.848-88.218 12.848-5.708 0-14.084-.377-25.122-1.137 38.256 25.119 83.177 37.685 134.756 37.685 16.371 0 33.119-1.526 50.251-4.571 23.6 16.755 50.06 28.931 79.37 36.549 6.852 1.718 15.037 3.237 24.554 4.568 2.283.191 4.381-.476 6.283-1.999 1.903-1.522 3.142-3.61 3.71-6.272-.089-1.143 0-1.77.287-1.861.281-.09.233-.712-.144-1.852-.376-1.144-.568-1.715-.568-1.715l-.712-1.424a13.68 13.68 0 0 0-.999-1.567c-.476-.66-.855-1.143-1.143-1.427-.28-.284-.705-.763-1.28-1.424-.568-.66-.951-1.092-1.143-1.283-.951-1.143-3.139-3.521-6.564-7.139-3.429-3.613-5.899-6.42-7.422-8.418a867.888 867.888 0 0 0-6.424-8.282 72.209 72.209 0 0 1-7.139-10.991c-1.998-3.806-3.949-7.995-5.852-12.56 23.602-13.716 42.156-30.513 55.667-50.409z"></path></g>
		</symbol>
	
		<symbol id="icon-facebook" viewBox="0 0 512 512">
			<path d="M448 0H64C28.704 0 0 28.704 0 64v384c0 35.296 28.704 64 64 64h192V336h-64v-80h64v-64c0-53.024 42.976-96 96-96h64v80h-32c-17.664 0-32-1.664-32 16v64h80l-32 80h-48v176h96c35.296 0 64-28.704 64-64V64c0-35.296-28.704-64-64-64z"></path>
		</symbol>
	
		<symbol id="icon-heart" viewBox="0 0 512 512">
			<path d="M471.383 44.578C444.879 15.832 408.512 0 368.973 0c-29.555 0-56.621 9.344-80.45 27.77C276.5 37.07 265.605 48.45 256 61.73c-9.602-13.277-20.5-24.66-32.527-33.96C199.648 9.344 172.582 0 143.027 0c-39.539 0-75.91 15.832-102.414 44.578C14.426 72.988 0 111.801 0 153.871c0 43.3 16.137 82.938 50.781 124.742 30.992 37.395 75.535 75.356 127.117 119.313 17.614 15.012 37.579 32.027 58.309 50.152A30.023 30.023 0 0 0 256 455.516c7.285 0 14.316-2.641 19.785-7.43 20.73-18.129 40.707-35.152 58.328-50.172 51.575-43.95 96.117-81.906 127.11-119.305C495.867 236.81 512 197.172 512 153.867c0-42.066-14.426-80.879-40.617-109.289zm0 0"></path>
		</symbol>
	
		<symbol id="icon-instagram" viewBox="0 0 511 511.9">
			<path d="M510.95 150.5c-1.2-27.2-5.598-45.898-11.9-62.102-6.5-17.199-16.5-32.597-29.6-45.398-12.802-13-28.302-23.102-45.302-29.5-16.296-6.3-34.898-10.7-62.097-11.898C334.648.3 325.949 0 256.449 0s-78.199.3-105.5 1.5c-27.199 1.2-45.898 5.602-62.097 11.898-17.204 6.5-32.602 16.5-45.403 29.602-13 12.8-23.097 28.3-29.5 45.3-6.3 16.302-10.699 34.9-11.898 62.098C.75 177.801.449 186.5.449 256s.301 78.2 1.5 105.5c1.2 27.2 5.602 45.898 11.903 62.102 6.5 17.199 16.597 32.597 29.597 45.398 12.801 13 28.301 23.102 45.301 29.5 16.3 6.3 34.898 10.7 62.102 11.898 27.296 1.204 36 1.5 105.5 1.5s78.199-.296 105.5-1.5c27.199-1.199 45.898-5.597 62.097-11.898a130.934 130.934 0 0 0 74.903-74.898c6.296-16.301 10.699-34.903 11.898-62.102 1.2-27.3 1.5-36 1.5-105.5s-.102-78.2-1.3-105.5zm-46.098 209c-1.102 25-5.301 38.5-8.801 47.5-8.602 22.3-26.301 40-48.602 48.602-9 3.5-22.597 7.699-47.5 8.796-27 1.204-35.097 1.5-103.398 1.5s-76.5-.296-103.403-1.5c-25-1.097-38.5-5.296-47.5-8.796C94.551 451.5 84.45 445 76.25 436.5c-8.5-8.3-15-18.3-19.102-29.398-3.5-9-7.699-22.602-8.796-47.5-1.204-27-1.5-35.102-1.5-103.403s.296-76.5 1.5-103.398c1.097-25 5.296-38.5 8.796-47.5C61.25 94.199 67.75 84.1 76.352 75.898c8.296-8.5 18.296-15 29.398-19.097 9-3.5 22.602-7.7 47.5-8.801 27-1.2 35.102-1.5 103.398-1.5 68.403 0 76.5.3 103.403 1.5 25 1.102 38.5 5.3 47.5 8.8 11.097 4.098 21.199 10.598 29.398 19.098 8.5 8.301 15 18.301 19.102 29.403 3.5 9 7.699 22.597 8.8 47.5 1.2 27 1.5 35.097 1.5 103.398s-.3 76.301-1.5 103.301zm0 0"></path><path d="M256.45 124.5c-72.598 0-131.5 58.898-131.5 131.5s58.902 131.5 131.5 131.5c72.6 0 131.5-58.898 131.5-131.5s-58.9-131.5-131.5-131.5zm0 216.8c-47.098 0-85.302-38.198-85.302-85.3s38.204-85.3 85.301-85.3c47.102 0 85.301 38.198 85.301 85.3s-38.2 85.3-85.3 85.3zm167.402-222c0 16.954-13.747 30.7-30.704 30.7-16.953 0-30.699-13.746-30.699-30.7 0-16.956 13.746-30.698 30.7-30.698 16.956 0 30.703 13.742 30.703 30.699zm0 0"></path>
		</symbol>
	
		<symbol id="icon-shopping-bag" viewBox="0 0 512 512">
			<path d="M447.988 139.696A4 4 0 0 0 444 136h-72v-20C372 52.036 319.96 0 256 0S140 52.036 140 116v20H68a4 4 0 0 0-3.988 3.696l-28 368a3.988 3.988 0 0 0 1.056 3.02A3.988 3.988 0 0 0 40 512h432a4 4 0 0 0 3.988-4.3l-28-368.004zM172 116c0-46.316 37.68-84 84-84s84 37.684 84 84v20H172v-20zm-16 132c-22.06 0-40-17.944-40-40 0-15.964 8-30.348 24-36.66V208c0 8.824 7.18 16 16 16s16-7.176 16-16v-36.636c16 6.312 24 20.804 24 36.636 0 22.056-17.94 40-40 40zm200 0c-22.06 0-40-17.944-40-40 0-15.964 8-30.348 24-36.66V208c0 8.824 7.18 16 16 16s16-7.176 16-16v-36.636c16 6.312 24 20.804 24 36.636 0 22.056-17.94 40-40 40z"></path>
		</symbol>
	
		<symbol id="icon-time" viewBox="0 0 477.867 477.867">
			<path d="M238.933 0C106.974 0 0 106.974 0 238.933s106.974 238.933 238.933 238.933 238.933-106.974 238.933-238.933C477.726 107.033 370.834.141 238.933 0zm0 443.733c-113.108 0-204.8-91.692-204.8-204.8s91.692-204.8 204.8-204.8 204.8 91.692 204.8 204.8c-.122 113.058-91.742 204.678-204.8 204.8z"></path><path d="M238.933 85.333c-9.426 0-17.067 7.641-17.067 17.067v119.467H102.4c-9.426 0-17.067 7.641-17.067 17.067S92.974 256 102.4 256h136.533c9.426 0 17.067-7.641 17.067-17.067V102.4c0-9.426-7.641-17.067-17.067-17.067z"></path>
		</symbol>
	
		<symbol id="icon-twitter" viewBox="0 0 512 512">
			<path d="M512 97.248c-19.04 8.352-39.328 13.888-60.48 16.576 21.76-12.992 38.368-33.408 46.176-58.016-20.288 12.096-42.688 20.64-66.56 25.408C411.872 60.704 384.416 48 354.464 48c-58.112 0-104.896 47.168-104.896 104.992 0 8.32.704 16.32 2.432 23.936-87.264-4.256-164.48-46.08-216.352-109.792-9.056 15.712-14.368 33.696-14.368 53.056 0 36.352 18.72 68.576 46.624 87.232-16.864-.32-33.408-5.216-47.424-12.928v1.152c0 51.008 36.384 93.376 84.096 103.136-8.544 2.336-17.856 3.456-27.52 3.456-6.72 0-13.504-.384-19.872-1.792 13.6 41.568 52.192 72.128 98.08 73.12-35.712 27.936-81.056 44.768-130.144 44.768-8.608 0-16.864-.384-25.12-1.44C46.496 446.88 101.6 464 161.024 464c193.152 0 298.752-160 298.752-298.688 0-4.64-.16-9.12-.384-13.568 20.832-14.784 38.336-33.248 52.608-54.496z"></path>
		</symbol>
	
		<symbol id="icon-view" viewBox="0 0 488.85 488.85">
			<path d="M244.425 98.725c-93.4 0-178.1 51.1-240.6 134.1-5.1 6.8-5.1 16.3 0 23.1 62.5 83.1 147.2 134.2 240.6 134.2s178.1-51.1 240.6-134.1c5.1-6.8 5.1-16.3 0-23.1-62.5-83.1-147.2-134.2-240.6-134.2zm6.7 248.3c-62 3.9-113.2-47.2-109.3-109.3 3.2-51.2 44.7-92.7 95.9-95.9 62-3.9 113.2 47.2 109.3 109.3-3.3 51.1-44.8 92.6-95.9 95.9zm-3.1-47.4c-33.4 2.1-61-25.4-58.8-58.8 1.7-27.6 24.1-49.9 51.7-51.7 33.4-2.1 61 25.4 58.8 58.8-1.8 27.7-24.2 50-51.7 51.7z"></path>
		</symbol>
	
		<symbol id="icon-vk" viewBox="0 0 24 24">
			<path d="M19.915 13.028c-.388-.49-.277-.708 0-1.146.005-.005 3.208-4.431 3.538-5.932l.002-.001c.164-.547 0-.949-.793-.949h-2.624c-.668 0-.976.345-1.141.731 0 0-1.336 3.198-3.226 5.271-.61.599-.892.791-1.225.791-.164 0-.419-.192-.419-.739V5.949c0-.656-.187-.949-.74-.949H9.161c-.419 0-.668.306-.668.591 0 .622.945.765 1.043 2.515v3.797c0 .832-.151.985-.486.985-.892 0-3.057-3.211-4.34-6.886-.259-.713-.512-1.001-1.185-1.001H.9c-.749 0-.9.345-.9.731 0 .682.892 4.073 4.148 8.553C6.318 17.343 9.374 19 12.154 19c1.671 0 1.875-.368 1.875-1.001 0-2.922-.151-3.198.686-3.198.388 0 1.056.192 2.616 1.667C19.114 18.217 19.407 19 20.405 19h2.624c.748 0 1.127-.368.909-1.094-.499-1.527-3.871-4.668-4.023-4.878z"></path>
		</symbol>
	
</svg>
